<svg width="130" height="142" viewBox="0 0 130 142" fill="none" xmlns="http://www.w3.org/2000/svg">
<path d="M81.35 25.5046L81.2735 25.3305L81.1655 25.1739C79.6578 22.9874 76.9198 19.7293 73.5132 16.922C70.1426 14.1442 65.8727 11.6048 61.3255 11.267C57.0355 10.9483 51.959 11.9199 47.4786 13.1789C42.9921 14.4397 38.9079 16.0457 36.4672 17.1647C31.7152 19.052 25.2417 24.4593 23.4796 34.6037C22.6626 39.3074 22.2912 41.8431 22.2625 44.4856C22.2395 46.5972 22.4382 48.7726 22.7484 52.1693C22.8188 52.9396 22.8949 53.7728 22.9754 54.6822C23.2651 57.9531 23.1762 63.4273 21.9428 69.0281C20.7034 74.6562 18.3669 80.1498 14.3697 83.7624C9.45943 88.2001 6.82956 95.1808 5.6494 101.605C4.47276 108.01 4.64303 114.394 5.81785 117.918C7.01004 121.495 10.3968 125.804 14.7014 129.171C19.0327 132.558 24.6402 135.264 30.4845 135.187C37.2543 135.098 47.1915 133.385 56.3008 130.88C60.8703 129.624 65.2843 128.154 69.0342 126.561C72.6828 125.01 75.8699 123.275 77.9283 121.4C78.6557 120.861 79.419 120.063 80.1724 119.155C80.9875 118.173 81.8749 116.96 82.7955 115.575C84.6377 112.804 86.6624 109.273 88.5626 105.377C92.3363 97.6391 95.7483 88.1969 96.0996 80.2694C96.4491 72.3819 93.9923 61.5525 90.9002 51.4077C87.7876 41.1955 83.9465 31.4125 81.35 25.5046Z" fill="#E4D6FF" stroke="black" stroke-width="3"/>
<path d="M20.1207 34.8319L19.6388 36.4149L21.2615 36.7395C24.9794 37.4831 27.9779 36.3427 30.3245 34.3758C32.6115 32.4588 34.2837 29.7606 35.545 27.3035C36.1816 26.0633 36.7304 24.85 37.204 23.7925C37.2408 23.7103 37.2771 23.6292 37.3128 23.5494C37.6356 22.8281 37.9142 22.2055 38.1657 21.6882C39.3867 24.243 41.1903 27.6015 42.9261 30.2319C43.9186 31.7358 44.969 33.1269 45.9361 33.9639C46.3877 34.3548 47.0402 34.8228 47.8176 34.9105C48.257 34.96 48.7364 34.8867 49.1781 34.6196C49.6024 34.363 49.8796 33.9958 50.0591 33.6451C51.1402 31.5321 51.607 29.0145 51.784 26.6125C51.9621 24.1939 51.8534 21.7787 51.7099 19.8132C51.6918 19.566 51.6731 19.3244 51.6542 19.09C52.3828 19.4832 53.2225 19.7921 54.1153 20.0359C56.1395 20.5888 58.6365 20.8603 61.2218 20.9097C66.3643 21.008 72.2272 20.2315 75.9451 18.7168L79.1535 17.4096L76.0049 15.9644C75.5019 15.7335 74.8908 15.4384 74.1852 15.0976C71.3632 13.7348 67.0293 11.6418 62.0516 10.0075C55.8269 7.96372 48.366 6.55049 41.2148 8.17577C33.8736 9.84422 29.0374 15.1801 25.8536 20.6408C22.8571 25.7804 21.2108 31.2267 20.2864 34.2848C20.2283 34.4768 20.1732 34.6594 20.1207 34.8319ZM38.8875 20.4425C38.8875 20.4426 38.8852 20.445 38.8807 20.4491C38.8852 20.4444 38.8875 20.4423 38.8875 20.4425Z" fill="#65FB76" stroke="black" stroke-width="2"/>
<path d="M39.6836 13.1101L40.0929 13.958H41.0344H43.5974H45.6193L45.033 12.023L42.4699 3.56499L42.0418 2.15215L40.6223 2.55771L37.0341 3.58292L35.3206 4.07249L36.0953 5.67733L39.6836 13.1101Z" fill="#65FB76" stroke="black" stroke-width="2"/>
<circle cx="37.7028" cy="53.4659" r="2.81933" fill="black"/>
<circle cx="54.6182" cy="53.4659" r="2.81933" fill="black"/>
<path d="M80.3362 58.9109V56.9109H78.3362H73.7536H72.8426L72.2446 57.5982C70.1512 60.0046 68.0934 62.4215 66.0711 64.8491C64.0673 67.2546 62.0279 69.6499 59.9531 72.0349L59.462 72.5994V73.3476V76.8474V78.8474H61.462H72.0378V82.5033V84.5033H74.0378H78.3362H80.3362V82.5033V78.8474H81.6756H82.2632C82.7227 79.77 83.2745 80.6089 83.9265 81.3529L83.9421 81.3707L83.9581 81.3882C85.0503 82.5764 86.3362 83.4811 87.8066 84.0761L87.8066 84.0761L87.8193 84.0812C89.2751 84.6587 90.8174 84.9408 92.429 84.9408C94.0788 84.9408 95.6461 84.6618 97.1097 84.0812C98.608 83.4868 99.906 82.5774 100.986 81.3713C101.659 80.6232 102.227 79.778 102.696 78.8474H103.786H114.362V82.5033V84.5033H116.362H120.661H122.661V82.5033V78.8474H124H126V76.8474V73.3163V71.3163H124H122.661V58.9109V56.9109H120.661H116.078H115.167L114.569 57.5982C112.476 60.0046 110.418 62.4215 108.395 64.8491C107.05 66.4638 105.689 68.0739 104.312 69.6794C104.23 67.9333 103.966 66.3361 103.494 64.9099C102.928 63.1815 102.107 61.6737 100.987 60.4498C99.9097 59.2259 98.6121 58.304 97.1097 57.708C95.6461 57.1274 94.0788 56.8484 92.429 56.8484C90.8174 56.8484 89.2751 57.1305 87.8193 57.708L87.8193 57.708L87.8066 57.7131C86.3261 58.3122 85.036 59.2345 83.944 60.4478L83.9403 60.4519C82.8445 61.6763 82.0356 63.1836 81.4705 64.91C80.8892 66.665 80.6242 68.6788 80.6242 70.9102C80.6242 71.0464 80.6252 71.1818 80.6272 71.3163H80.3362V58.9109ZM72.0378 69.6792V71.3788H70.6017L72.0378 69.6792ZM92.429 77.316C92.0972 77.316 91.7624 77.2512 91.4114 77.1054C91.258 77.0351 91.0191 76.868 90.7306 76.454C90.4609 76.0669 90.1747 75.4492 89.9283 74.5165C89.7204 73.6421 89.5976 72.4541 89.5976 70.9102C89.5976 69.3408 89.7212 68.1417 89.9293 67.2682C90.1776 66.3092 90.4617 65.7092 90.7127 65.3605L90.7218 65.3479L90.7306 65.3352C91.026 64.9112 91.2696 64.7462 91.4224 64.6789L91.4358 64.673L91.4491 64.6669C91.7954 64.5086 92.1167 64.4419 92.429 64.4419C92.776 64.4419 93.1085 64.5133 93.4443 64.6669L93.4838 64.685L93.5239 64.7013C93.7193 64.7806 93.9638 64.9475 94.2339 65.3352L94.2428 65.3479L94.2518 65.3605C94.4939 65.6967 94.7678 66.2859 94.9941 67.2447L94.9998 67.2689L95.0061 67.293C95.2312 68.1512 95.3669 69.3402 95.3669 70.9102C95.3669 72.4569 95.2317 73.6363 95.0061 74.4962L95.0009 74.5161L94.996 74.5361C94.7715 75.47 94.4956 76.0785 94.2339 76.454C93.9638 76.8417 93.7193 77.0086 93.5239 77.0879L93.5111 77.0931L93.4983 77.0985C93.1511 77.2451 92.7998 77.316 92.429 77.316ZM112.926 71.3788L114.362 69.6792V71.3788H112.926Z" fill="white" stroke="black" stroke-width="3"/>
<path d="M69.1806 35.2686C69.0696 36.2938 69.2139 38.3442 70.6792 38.3442C72.1445 38.3442 72.3443 36.2938 72.1778 35.2686" stroke="black" stroke-width="2" stroke-linecap="round"/>
<path d="M75.8445 39.8822C75.7335 40.9074 75.8778 42.9578 77.3431 42.9578C78.8084 42.9578 79.0082 40.9074 78.8417 39.8822" stroke="black" stroke-width="2" stroke-linecap="round"/>
<path d="M43.1413 81.6179L41.9738 59.3674H48.3513L47.1839 81.6179H43.1413Z" fill="#DBDBDB" stroke="black" stroke-width="2"/>
</svg>
